# Blender v2.91.0 OBJ File: ''
# www.blender.org
mtllib RingMesh.mtl
o Torus
v 0.750000 0.000000 0.000000
v 0.747813 -0.125000 -0.000000
v 0.743584 0.000000 -0.097895
v 0.741415 -0.125000 -0.097609
v 0.724444 0.000000 -0.194114
v 0.722331 -0.125000 -0.193548
v 0.692910 0.000000 -0.287013
v 0.690889 -0.125000 -0.286175
v 0.649519 0.000000 -0.375000
v 0.647625 -0.125000 -0.373906
v 0.595015 0.000000 -0.456571
v 0.593280 -0.125000 -0.455239
v 0.530330 0.000000 -0.530330
v 0.528783 -0.125000 -0.528783
v 0.456571 0.000000 -0.595015
v 0.455240 -0.125000 -0.593279
v 0.375000 0.000000 -0.649519
v 0.373906 -0.125000 -0.647625
v 0.287013 0.000000 -0.692910
v 0.286176 -0.125000 -0.690889
v 0.194114 0.000000 -0.724444
v 0.193548 -0.125000 -0.722332
v 0.097895 0.000000 -0.743584
v 0.097609 -0.125000 -0.741415
v 0.000000 0.000000 -0.750000
v 0.000000 -0.125000 -0.747813
v -0.097895 0.000000 -0.743584
v -0.097609 -0.125000 -0.741415
v -0.194114 0.000000 -0.724444
v -0.193548 -0.125000 -0.722332
v -0.287013 0.000000 -0.692910
v -0.286176 -0.125000 -0.690889
v -0.375000 0.000000 -0.649519
v -0.373906 -0.125000 -0.647625
v -0.456571 0.000000 -0.595015
v -0.455239 -0.125000 -0.593280
v -0.530330 0.000000 -0.530330
v -0.528784 -0.125000 -0.528783
v -0.595015 0.000000 -0.456571
v -0.593280 -0.125000 -0.455239
v -0.649519 0.000000 -0.375000
v -0.647625 -0.125000 -0.373906
v -0.692910 0.000000 -0.287013
v -0.690889 -0.125000 -0.286176
v -0.724444 0.000000 -0.194114
v -0.722332 -0.125000 -0.193548
v -0.743584 0.000000 -0.097895
v -0.741415 -0.125000 -0.097609
v -0.750000 0.000000 -0.000000
v -0.747813 -0.125000 -0.000000
v -0.743584 0.000000 0.097895
v -0.741415 -0.125000 0.097609
v -0.724444 0.000000 0.194114
v -0.722332 -0.125000 0.193548
v -0.692910 0.000000 0.287012
v -0.690889 -0.125000 0.286175
v -0.649519 0.000000 0.375000
v -0.647625 -0.125000 0.373906
v -0.595015 0.000000 0.456571
v -0.593280 -0.125000 0.455239
v -0.530330 0.000000 0.530330
v -0.528784 -0.125000 0.528783
v -0.456571 0.000000 0.595015
v -0.455240 -0.125000 0.593279
v -0.375000 0.000000 0.649519
v -0.373906 -0.125000 0.647625
v -0.287013 0.000000 0.692910
v -0.286176 -0.125000 0.690889
v -0.194115 0.000000 0.724444
v -0.193548 -0.125000 0.722331
v -0.097895 0.000000 0.743584
v -0.097610 -0.125000 0.741415
v 0.000000 0.000000 0.750000
v 0.000000 -0.125000 0.747813
v 0.097895 0.000000 0.743584
v 0.097609 -0.125000 0.741415
v 0.194114 0.000000 0.724444
v 0.193548 -0.125000 0.722332
v 0.287013 0.000000 0.692910
v 0.286176 -0.125000 0.690889
v 0.375000 0.000000 0.649519
v 0.373906 -0.125000 0.647625
v 0.456571 0.000000 0.595015
v 0.455239 -0.125000 0.593280
v 0.530330 0.000000 0.530330
v 0.528783 -0.125000 0.528784
v 0.595015 0.000000 0.456571
v 0.593280 -0.125000 0.455239
v 0.649519 0.000000 0.375000
v 0.647625 -0.125000 0.373906
v 0.692910 0.000000 0.287013
v 0.690889 -0.125000 0.286176
v 0.724444 0.000000 0.194114
v 0.722332 -0.125000 0.193548
v 0.743584 0.000000 0.097895
v 0.741415 -0.125000 0.097609
vt 0.500000 0.000000
vt 0.520833 0.000000
vt 0.520833 0.083333
vt 0.500000 0.083333
vt 0.541667 0.000000
vt 0.541667 0.083333
vt 0.562500 0.000000
vt 0.562500 0.083333
vt 0.583333 0.000000
vt 0.583333 0.083333
vt 0.604167 0.000000
vt 0.604167 0.083333
vt 0.625000 0.000000
vt 0.625000 0.083333
vt 0.645833 0.000000
vt 0.645833 0.083333
vt 0.666667 0.000000
vt 0.666667 0.083333
vt 0.687500 0.000000
vt 0.687500 0.083333
vt 0.708333 0.000000
vt 0.708333 0.083333
vt 0.729167 0.000000
vt 0.729167 0.083333
vt 0.750000 0.000000
vt 0.750000 0.083333
vt 0.770833 0.000000
vt 0.770833 0.083333
vt 0.791667 0.000000
vt 0.791667 0.083333
vt 0.812500 0.000000
vt 0.812500 0.083333
vt 0.833333 0.000000
vt 0.833333 0.083333
vt 0.854167 0.000000
vt 0.854167 0.083333
vt 0.875000 0.000000
vt 0.875000 0.083333
vt 0.895833 0.000000
vt 0.895833 0.083333
vt 0.916667 0.000000
vt 0.916667 0.083333
vt 0.937500 0.000000
vt 0.937500 0.083333
vt 0.958333 0.000000
vt 0.958333 0.083333
vt 0.979167 0.000000
vt 0.979167 0.083333
vt 1.000000 0.000000
vt 1.000000 0.083333
vt 0.000000 0.000000
vt 0.020833 0.000000
vt 0.020833 0.083333
vt 0.000000 0.083333
vt 0.041667 0.000000
vt 0.041667 0.083333
vt 0.062500 0.000000
vt 0.062500 0.083333
vt 0.083333 0.000000
vt 0.083333 0.083333
vt 0.104167 0.000000
vt 0.104167 0.083333
vt 0.125000 0.000000
vt 0.125000 0.083333
vt 0.145833 0.000000
vt 0.145833 0.083333
vt 0.166667 0.000000
vt 0.166667 0.083333
vt 0.187500 0.000000
vt 0.187500 0.083333
vt 0.208333 0.000000
vt 0.208333 0.083333
vt 0.229167 0.000000
vt 0.229167 0.083333
vt 0.250000 0.000000
vt 0.250000 0.083333
vt 0.270833 0.000000
vt 0.270833 0.083333
vt 0.291667 0.000000
vt 0.291667 0.083333
vt 0.312500 0.000000
vt 0.312500 0.083333
vt 0.333333 0.000000
vt 0.333333 0.083333
vt 0.354167 0.000000
vt 0.354167 0.083333
vt 0.375000 0.000000
vt 0.375000 0.083333
vt 0.395833 0.000000
vt 0.395833 0.083333
vt 0.416667 0.000000
vt 0.416667 0.083333
vt 0.437500 0.000000
vt 0.437500 0.083333
vt 0.458333 0.000000
vt 0.458333 0.083333
vt 0.479167 0.000000
vt 0.479167 0.083333
vn -0.9977 0.0175 0.0654
vn -0.9806 0.0175 0.1951
vn -0.9468 0.0175 0.3214
vn -0.8967 0.0175 0.4422
vn -0.8313 0.0175 0.5555
vn -0.7517 0.0175 0.6592
vn -0.6592 0.0175 0.7517
vn -0.5555 0.0175 0.8313
vn -0.4422 0.0175 0.8967
vn -0.3214 0.0175 0.9468
vn -0.1951 0.0175 0.9806
vn -0.0654 0.0175 0.9977
vn 0.0654 0.0175 0.9977
vn 0.1951 0.0175 0.9806
vn 0.3214 0.0175 0.9468
vn 0.4422 0.0175 0.8967
vn 0.5555 0.0175 0.8313
vn 0.6592 0.0175 0.7517
vn 0.7517 0.0175 0.6592
vn 0.8313 0.0175 0.5555
vn 0.8967 0.0175 0.4422
vn 0.9468 0.0175 0.3214
vn 0.9806 0.0175 0.1951
vn 0.9977 0.0175 0.0654
vn 0.9977 0.0175 -0.0654
vn 0.9806 0.0175 -0.1951
vn 0.9468 0.0175 -0.3214
vn 0.8967 0.0175 -0.4422
vn 0.8313 0.0175 -0.5555
vn 0.7517 0.0175 -0.6592
vn 0.6592 0.0175 -0.7517
vn 0.5555 0.0175 -0.8313
vn 0.4422 0.0175 -0.8967
vn 0.3214 0.0175 -0.9468
vn 0.1951 0.0175 -0.9806
vn 0.0654 0.0175 -0.9977
vn -0.0654 0.0175 -0.9977
vn -0.1951 0.0175 -0.9806
vn -0.3214 0.0175 -0.9468
vn -0.4422 0.0175 -0.8967
vn -0.5555 0.0175 -0.8313
vn -0.6592 0.0175 -0.7517
vn -0.7517 0.0175 -0.6592
vn -0.8313 0.0175 -0.5555
vn -0.8967 0.0175 -0.4422
vn -0.9468 0.0175 -0.3214
vn -0.9806 0.0175 -0.1951
vn -0.9977 0.0175 -0.0654
usemtl None
s off
f 1/1/1 3/2/1 4/3/1 2/4/1
f 3/2/2 5/5/2 6/6/2 4/3/2
f 5/5/3 7/7/3 8/8/3 6/6/3
f 7/7/4 9/9/4 10/10/4 8/8/4
f 9/9/5 11/11/5 12/12/5 10/10/5
f 11/11/6 13/13/6 14/14/6 12/12/6
f 13/13/7 15/15/7 16/16/7 14/14/7
f 15/15/8 17/17/8 18/18/8 16/16/8
f 17/17/9 19/19/9 20/20/9 18/18/9
f 19/19/10 21/21/10 22/22/10 20/20/10
f 21/21/11 23/23/11 24/24/11 22/22/11
f 23/23/12 25/25/12 26/26/12 24/24/12
f 25/25/13 27/27/13 28/28/13 26/26/13
f 27/27/14 29/29/14 30/30/14 28/28/14
f 29/29/15 31/31/15 32/32/15 30/30/15
f 31/31/16 33/33/16 34/34/16 32/32/16
f 33/33/17 35/35/17 36/36/17 34/34/17
f 35/35/18 37/37/18 38/38/18 36/36/18
f 37/37/19 39/39/19 40/40/19 38/38/19
f 39/39/20 41/41/20 42/42/20 40/40/20
f 41/41/21 43/43/21 44/44/21 42/42/21
f 43/43/22 45/45/22 46/46/22 44/44/22
f 45/45/23 47/47/23 48/48/23 46/46/23
f 47/47/24 49/49/24 50/50/24 48/48/24
f 49/51/25 51/52/25 52/53/25 50/54/25
f 51/52/26 53/55/26 54/56/26 52/53/26
f 53/55/27 55/57/27 56/58/27 54/56/27
f 55/57/28 57/59/28 58/60/28 56/58/28
f 57/59/29 59/61/29 60/62/29 58/60/29
f 59/61/30 61/63/30 62/64/30 60/62/30
f 61/63/31 63/65/31 64/66/31 62/64/31
f 63/65/32 65/67/32 66/68/32 64/66/32
f 65/67/33 67/69/33 68/70/33 66/68/33
f 67/69/34 69/71/34 70/72/34 68/70/34
f 69/71/35 71/73/35 72/74/35 70/72/35
f 71/73/36 73/75/36 74/76/36 72/74/36
f 73/75/37 75/77/37 76/78/37 74/76/37
f 75/77/38 77/79/38 78/80/38 76/78/38
f 77/79/39 79/81/39 80/82/39 78/80/39
f 79/81/40 81/83/40 82/84/40 80/82/40
f 81/83/41 83/85/41 84/86/41 82/84/41
f 83/85/42 85/87/42 86/88/42 84/86/42
f 85/87/43 87/89/43 88/90/43 86/88/43
f 87/89/44 89/91/44 90/92/44 88/90/44
f 89/91/45 91/93/45 92/94/45 90/92/45
f 91/93/46 93/95/46 94/96/46 92/94/46
f 93/95/47 95/97/47 96/98/47 94/96/47
f 95/97/48 1/1/48 2/4/48 96/98/48
