# Blender v2.90.1 OBJ File: ''
# www.blender.org
mtllib BossCubeFront.mtl
o BossCubeFront_Cube
v 1.000000 1.000000 -1.000000
v 1.000000 -1.000000 -1.000000
v -1.000000 1.000000 -1.000000
v -1.000000 -1.000000 -1.000000
v -1.000000 -1.000000 -0.021045
v 1.000000 1.000000 -0.021045
v -1.000000 1.000000 -0.021045
v 1.000000 -1.000000 -0.021045
vt 0.375000 0.166667
vt 0.625000 0.166667
vt 0.625000 0.250000
vt 0.375000 0.250000
vt 0.625000 0.500000
vt 0.375000 0.500000
vt 0.625000 0.583333
vt 0.375000 0.583333
vt 0.125000 0.500000
vt 0.125000 0.583333
vt 0.875000 0.500000
vt 0.875000 0.583333
vn -1.0000 0.0000 0.0000
vn 0.0000 0.0000 -1.0000
vn 1.0000 0.0000 0.0000
vn 0.0000 -1.0000 0.0000
vn 0.0000 1.0000 0.0000
vn 0.0000 0.0000 1.0000
usemtl Material
s off
f 5/1/1 7/2/1 3/3/1 4/4/1
f 4/4/2 3/3/2 1/5/2 2/6/2
f 2/6/3 1/5/3 6/7/3 8/8/3
f 4/9/4 2/6/4 8/8/4 5/10/4
f 1/5/5 3/11/5 7/12/5 6/7/5
f 8/8/6 6/7/6 7/2/6 5/10/6
